<svg width="55" height="55" viewBox="0 0 55 55" fill="none" xmlns="http://www.w3.org/2000/svg">
<path fill-rule="evenodd" clip-rule="evenodd" d="M27.8434 54.2454C35.0368 54.2454 41.9356 51.3879 47.0221 46.3014C52.1086 41.2149 54.9661 34.3161 54.9661 27.1227C54.9661 19.9293 52.1086 13.0306 47.0221 7.94406C41.9356 2.85756 35.0368 0 27.8434 0C20.65 0 13.7513 2.85756 8.66476 7.94406C3.57827 13.0306 0.720703 19.9293 0.720703 27.1227C0.720703 34.3161 3.57827 41.2149 8.66476 46.3014C13.7513 51.3879 20.65 54.2454 27.8434 54.2454ZM26.3347 17.5213C25.8241 17.1806 25.2306 16.985 24.6176 16.9552C24.0045 16.9254 23.3948 17.0626 22.8536 17.3522C22.3124 17.6418 21.86 18.0728 21.5446 18.5994C21.2292 19.1259 21.0626 19.7282 21.0627 20.342V33.9034C21.0626 34.5172 21.2292 35.1195 21.5446 35.6461C21.86 36.1726 22.3124 36.6037 22.8536 36.8932C23.3948 37.1828 24.0045 37.32 24.6176 37.2902C25.2306 37.2605 25.8241 37.0648 26.3347 36.7242L36.5057 29.9435C36.9701 29.6339 37.3508 29.2144 37.6141 28.7223C37.8774 28.2303 38.0152 27.6808 38.0152 27.1227C38.0152 26.5646 37.8774 26.0152 37.6141 25.5231C37.3508 25.031 36.9701 24.6116 36.5057 24.302L26.3347 17.5213Z" fill="white"/>
</svg>
